<svg width="122" height="186" viewBox="0 0 122 186" fill="none" xmlns="http://www.w3.org/2000/svg">
<path d="M51.1999 61.1L38.1999 78.4L21.9999 100L4.99992 122.6C-3.00008 133.3 -0.900076 148.4 9.79992 156.5L39.0999 178.5C51.8999 188.1 69.4999 188.1 82.1999 178.5L111.5 156.5C122.2 148.5 124.3 133.3 116.3 122.6L99.2999 100L83.0999 78.5L70.0999 61.2C67.7999 58.2 64.1999 56.8 60.6999 57.2C57.1999 56.7 53.4999 58.1 51.1999 61.1ZM83.0999 121.6L88.3999 128.7C91.7999 133.2 90.8999 139.6 86.3999 142.9L60.5999 162.3L34.7999 142.9C30.2999 139.5 29.3999 133.1 32.7999 128.7L38.0999 121.6L54.3999 100L60.5999 91.7L66.7999 100L83.0999 121.6Z" fill="#4E4A4A"/>
<path d="M51.1 4.1L38 21.4L21.8 42.9L4.79997 65.5C-3.20003 76.2 -1.10003 91.3 9.59997 99.4L38.9 121.4C51.7 131 69.3 131 82 121.4L111.3 99.4C122 91.4 124.1 76.2 116.1 65.5L99.1 42.9L82.9 21.4L69.9 4.1C67.6 1.1 64 -0.300001 60.5 0.0999991C57 -0.400001 53.4 0.999999 51.1 4.1ZM83 64.5L88.3 71.6C91.7 76.1 90.8 82.5 86.3 85.8L60.5 105.2L34.7 85.8C30.2 82.4 29.3 76 32.7 71.6L38 64.5L54.2 42.9L60.4 34.6L66.6 42.9L83 64.5Z" fill="#AB678A"/>
<path d="M49.7999 184.1C59.9 176.4 71.2999 170.7 72.0999 170.1C71.1999 170.2 65.9 172.9 64.4 173.6C56.1 177.7 51.9 180.1 47.2 183.1C47.3 183.2 48.8999 183.9 49.7999 184.1Z" fill="white"/>
<path d="M63.8 162.4C51.7 170.3 44.4 174 36.4 176.6C39.3 178.8 38.5 178.3 41.6 180.3C48.3 177.2 51.7 174.3 57.4 170.6C66.6 164.5 75.7 153.2 76.7 150.5C73.7 155.5 68.5 159.3 63.8 162.4Z" fill="white"/>
<path d="M34.9 142.9C27 149.7 22.3 155.2 16.4 161.5C17.5 162.5 20 164.2 20.3 164.5C25.5 155.2 32.1 150.5 36.8 147.1C36.8 147.1 36.9 146.9 38.6 145.7C38.5 145.6 36.4 144 34.9 142.9Z" fill="white"/>
<path d="M60.9001 128.6C64.8001 125 67.5001 121.1 72.3001 116.2C71.1001 117.1 69.4 119.3 58.5 126.9C57.4 127.7 57 127.7 55.8 128.4C56 128.4 59.7001 128.7 60.9001 128.6Z" fill="white"/>
<path d="M31.9 139.2C23.6 143.3 8.70002 155 8.40002 155.4C10.1 156.8 10.8 157.3 12.3 158.4C17.9 152.6 21.2 148.9 32.6 140.5C32.3 140 32.1 139.7 31.9 139.2Z" fill="white"/>
<path d="M0.700049 142.4C4.80005 139.1 5.90005 139 6.20005 138.8C5.60005 139.5 4.80005 140.3 1.40005 144.8C1.60005 145.7 2.20005 147 2.90005 148.3C4.10005 145.8 4.50005 145.9 6.50005 142.6C9.60005 137.7 11.8 137.2 13.4 135.8C17.8 132.3 21.9 126.9 22.5 125.5C13.3 134.1 8.10005 135 0.300049 139.6C0.300049 139.7 0.500049 141.4 0.700049 142.4Z" fill="white"/>
<path d="M44.0999 112.4C40.5999 112.9 28.3 113 5.69995 126.6C4.89995 127 1.09995 130.3 1.09995 130.3C1.09995 130.3 0.299951 133.2 0.199951 135C8.89995 128.7 6.99995 127.8 21.4 121.5C37.7 114.3 55.1 117 82.6 98.6C94.7 90.2 101 82.1 101.5 80.9C86.6 94.9 64.3999 109.4 44.0999 112.4Z" fill="white"/>
<path d="M32.4 84.2C17.7 91.4 10.1 92 2.69995 91.1C2.99995 91.8 3.69995 93 3.79995 93C4.89995 93.1 5.29995 93.2 6.49995 93.2C5.89995 93.4 5.89995 93.8 4.59995 94.1C4.79995 94.7 6.49995 96.6 6.79995 96.7C16.2 94 23 90.6 32.7 84.1C32.5 84.2 32.5 84.2 32.4 84.2Z" fill="white"/>
<path d="M64.8 57.5C55.6 66.1 47.7 69.7 40.9 75L37 80.2C49.4 73.2 62.8 66.1 69.9 61.1C68.7 59.5 66.6 58.1 64.8 57.5Z" fill="white"/>
<path d="M92 33.2C84 39.9 74.2 51.2 73.6 51.9C75.3 53.8 74.3 52.9 75.9 54.8C86.5 46.1 90.3 42.2 94.1 36.1C94 35.9 92.7 34 92 33.2Z" fill="white"/>
<path d="M0.3 76.1C0 77.2 0 78.9 0 79.4C0.4 79.4 0 79.4 0.3 79.5C9.6 81.2 15.8 80.8 16.7 80.8C13.5 81.4 7.6 82.1 0.1 82.9C0.1 84.1 0.7 86.5 1.1 87.4C11.8 88.1 27.5 78.5 30.5 76.6C30.5 76.6 30.5 76.5 30.6 76.5C18.6 81.4 11.8 77.9 0.3 76.1Z" fill="white"/>
<path d="M11.1 114.5C11.1 114.5 12.9 113.2 13.1 113C16.1 110.6 14.8 109.9 14.5 109.9L11.1 114.5Z" fill="white"/>
<path d="M13.3 102.2C13.7 102.5 14.6 103.2 14.6 103.2C19.6 98.5 23.2 96 23.8 95.4C22.5 95.7 21.2 96.3 20 96.9C16.6 98.5 14.8 99.9 12.2 101.4C12.2 101.4 13 101.9 13.3 102.2Z" fill="white"/>
<path d="M46.3 151.3C41.8 154.9 38.1 157.6 36.1 158.6C36.2 158.4 39.8 155.2 45.1 150.4L42.6 148.5C32.2 158.4 29.2 162.1 24.3 167.3C25.3 168.1 26.5 169 26.5 169C33.3 162.1 40.1 158.7 48.8 153.3C47.9 152.7 46.4 151.5 46.3 151.3Z" fill="white"/>
<path d="M103.4 105.2C93 110.3 82.3 114.8 69.3 124.6C69.3 124.6 67.4 126.1 64.5 128.4C65.5 128.3 66.3 128.2 66.9 128.1C67.3 128 67.9 127.9 68.7 127.7C69 127.6 69.7 127.5 70.5 127.2C71 127 71.5 126.9 71.9 126.7C74.2 124.9 75.8 123.8 76.4 123.5C76.4 123.5 76.6 124 75.2 125.4C77.5 124.4 79.5 123.2 81 122.1C88.8 116.1 98.4 111.5 104.8 107L103.4 105.2Z" fill="white"/>
<path d="M5.40002 152C5.30002 149 7.90002 146.4 9.80002 144.1C13.9 139.5 22.1 133.6 24.6 125.5C25.2 126.6 26 132.7 21.2 137.6C16.3 142.9 5.60002 151.7 5.40002 152Z" fill="white"/>
<path d="M53.4 156.8C52.9 157.2 51.5 158.5 51 159C50.7 159.3 42.2 165.6 40.5 166.4L34.4 170.2C35.9 170.2 40.8 168.1 47.9 165C51.6 163.4 53.5 161.8 57 159.4C56.9 159.3 54.5 157.6 53.4 156.8Z" fill="white"/>
<path d="M109.3 113.2C105.3 115.4 98.4 118.9 92 123C91.2 123.4 88.9 125 86.7 126.5C86.7 126.5 89.5 129.5 90.3 133.2C94.4 129.3 97.9 125.6 103.1 120.7C105.5 118.4 107.5 116.4 109.9 114.2L109.3 113.2Z" fill="white"/>
<path d="M13.1 72.8C9.10003 72.9 6.40002 70.9 3.00002 68.4C3.00002 68.4 2.20002 69.9 1.90002 70.7C3.50002 71.5 5.30002 72.3 7.40002 73.1C12.7 75.2 15.4 76.9 29.4 69C30.3 68.5 31.3 68 32.1 67.3C31.2 67.7 20.6 72.6 13.1 72.8Z" fill="white"/>
<path d="M62.4 94.2C76.7 85.6 81.9 80.6 83.4 79L81.5 76.9C75 83.7 68.1 88.8 61.4 92.9L62.4 94.2Z" fill="white"/>
<path d="M67.1 100.4C73.4 95.9 82.1 88.9 86.2 82.7L84.3 80.2C80.6 87.7 71.1 96.2 66.8 98.7C66.8 98.7 66.5 98.9 66.1 99.1L67.1 100.4Z" fill="white"/>
<path d="M21.1 107.9C20.6 108.2 8.00002 120.8 4.40002 125.9C5.40002 125.3 6.80002 124.3 7.70002 123.6C14.3 117.6 20 112.6 23.2 109.6L21.1 107.9Z" fill="white"/>
<path d="M103.9 49.1C100.8 52.6 97.6 56.3 95.1 60.3C93 63.7 90.2 68 88 70.9C88.8 72.3 89.1 72.2 89.7 73.7C89.9 74.2 90.1 74.8 90.3 75.3C91 74.1 92 72.6 92.7 71.3C96 64.6 101 58 106.3 52.3C106 52 104.7 50.2 103.9 49.1Z" fill="white"/>
<path d="M114.8 151.8C111.8 153.6 108.5 155 106 156.7C95.6 163.4 88.8 166.3 88.8 166.3C87.3 167 72.7999 172.1 60.7999 180.3C60.6999 180.3 54.3 184.5 53.7 185.1C54.5 185.3 56 185.5 56.4 185.5C77.8 173.3 85.1 170.2 95.9 165.3C97.1 164.5 113.5 154.8 114.8 151.8Z" fill="white"/>
<path d="M43 55.5C38.8 55.3 35.4 54.6 34.6 54.4C25.9 51.9 21.8 52.5 15.2 51.8C14.8 52.3 13.6 54 13.6 54C13.6 54 36.2 57.9 43.5 57.6C44.5 56.5 45.1 55.6 45.1 55.6C44.2 55.5 43.5 55.5 43 55.5Z" fill="white"/>
<path d="M64.4 39.7C66.1 38.7 68.6 36.9 70.3 35.8C69.1 37.9 67.6 40.2 66.2 42.1C67 43.1 66.9 43 67.6 44C74 38.2 79.9 31.5 85.2 24.3C84.2 22.9 84 22.6 83 21.3C77 27.4 70.2 33.4 63 37.9C63.6 38.7 64 39.1 64.4 39.7Z" fill="white"/>
<path d="M54.7001 42.8C54 42.9 53.3 43 51.8 43.4C37.8 47.2 34.5 44.4 20.3 44.9L18.8 46.9C28.4 46.7 33.8 48.1 37.6 47.6C41.6 47 46.7 47.1 53.6 44.2L54.7001 42.8Z" fill="white"/>
<path d="M46.2001 125.6C49.7001 123.8 55.4001 121.6 62.9001 116.1C63.4001 115.7 71.3 109.5 71.7 109C71.5 109.1 60.8001 114.8 60.7001 114.8C52.4001 119.4 47.6 122.5 41.8 123.2C42.8 124 45.2001 125.4 46.2001 125.6Z" fill="white"/>
<path d="M35.1 125.8C32.7 126.4 31.8 128.1 30.1 130.1C26.9 133.9 25.9 136.5 25.9 138.7C27.6 136.8 27.2 136.8 31 134.9C31.1 130.4 32.6 129.3 35.1 125.8Z" fill="white"/>
<path d="M96.8 39.7C92.8 44.7 86.7 51.8 79.3 59.5C80 60.4 80.7 61.5 81.5 62.4C83.3 60.2 85.4 57.2 87.3 54.7C91.3 49.4 94.8 44.4 97.5 40.5C97.3 40.3 97 40.1 96.8 39.7Z" fill="white"/>
<path d="M27.4 60.3C22.4 59.7 15.7 59.3 9.7 59.2C8.4 60.9 8.1 61.3 7 62.8C14.6 62.8 16.5 63.3 23 62.8C29.6 62.4 37.4 64.4 38.5 64.3C39.6 62.9 39.7 62.6 40.8 61.2C36 61.3 31.5 60.8 27.4 60.3Z" fill="white"/>
<path d="M66.3 169.1C67 167.9 70.6 163.2 75.2 159.7C80.8 155.6 81 157.3 89.7 153.7C100.1 149.3 110.4 143.2 114.7 139.7C112.5 141.9 99 154.1 90.5 158.4C83.6 162.1 77.5 159.4 70.6 165.4C69.2 166.4 68 167.6 66.7 168.8C66.6 168.9 66.4 169 66.3 169.1Z" fill="white"/>
<path d="M77 13.4C62.3 24.8 43.6 31.2 29.4 32.9C28.1 34.6 25.5 38.1 25.5 38.1C25.9 38.1 65 29.5 72.2 23.8C74.7 22.1 77.2 20 79.9 17.3C79 16 78 14.8 77 13.4Z" fill="white"/>
<path d="M32.4 28.8C62.2 19.4 70.4 14.6 75.5 11.4C75 10.5 74.3 10 73.9 9.10001C61.4 14.6 48.8 19.6 36 24L32.4 28.8Z" fill="white"/>
<path d="M34.1 70.1C34 70.1 33.7 70.2 33.6 70.2C30.9 71.1 26.1 73 24.3 75.1C25.1 75.2 26 75 26.8 74.9C28.7 74.7 30.2 74.4 31.4 74.1C32.3 72.8 33 71.4 34.1 70.1Z" fill="white"/>
<path d="M47.6 68.2C51.8 65.2 60.4 57.8 60.7 57.3C60.7 57.3 58.5 56.8 55.8 57.9C54.6 59.2 48.7 67 47.6 68.2Z" fill="white"/>
<path d="M117.9 125C103.1 135.9 98.3 143.7 82.3 145.9C82.1 146.1 81.7 146.3 81.4 146.5C83 147.2 85.6 146.9 88.4 146.5C99.6 145.1 112.7 133 119.2 127.6C118.9 126.7 118.7 126.1 117.9 125Z" fill="white"/>
<path d="M113.9 119.4C107.5 126.2 96.1 134.8 89 140.1C88.9 140.3 88.6 140.6 88.5 140.9C95.1 136.5 105.7 129.6 116.2 122.4C116 122 114.6 120.2 113.9 119.4Z" fill="white"/>
<path d="M121.1 135.7C121.1 135.4 121 134 120.8 133C120.1 133.3 118.9 133.8 118.1 134.3C117 135.1 115.8 135.8 114.8 136.8C114.9 136.8 118.8 136.2 121.1 135.7Z" fill="white"/>
<path d="M120.5 142.5C115.5 145 105.8 150.1 100.8 155.7C101.6 155.4 109.7 150.7 119.5 145.9C120 144.8 120.4 143.6 120.5 142.5Z" fill="white"/>
<path d="M117.9 92.1C118.5 90.9 119.2 89.8 119.6 88.5C105 99.6 84.9 102.9 77.1 115.4C77.7 115 79.2 114.8 79.8 114.3C88.5 106.8 103.2 98.8 116.5 93.1C116.5 93.1 117.4 92.7 117.9 92.1Z" fill="white"/>
<path d="M77.8 71.6C72.6 77.3 67 82.8 61.3 88.2C61.1 88.4 60.9 88.6 60.9 88.9C64.6 86.9 72.3 80.7 79 73.2C78.6 72.6 78.3 72.1 77.8 71.6Z" fill="white"/>
<path d="M84.3 66.3C88.1 60.7 89.9 56.5 90.2 55.7C89.4 56.9 88.8 58.8 83.5 65.2C83.8 65.4 84.1 65.9 84.3 66.3Z" fill="white"/>
<path d="M67 1.39999C65.3 2.19999 59.5 4.79999 56.8 6.09999C52.3 8.09999 48.7 9.49999 46.1 10.7C46.1 10.7 45.6 11.4 45.3 11.7C45.3 11.7 44.5 12.7 43.5 14.2C52.9 10.5 58.4 8.39999 69.9 3.59999C69.8 3.39999 69.1 2.49999 67 1.39999Z" fill="white"/>
<path d="M121.1 81.1C121.1 80.7 121.1 78.8 121 78.2C118 79.9 115.2 83.4 111.7 84.3C109.6 84.9 106 85.2 101.4 88.4C95.7 92.6 92.3 95.6 84.4 101.2C83.8 101.7 81.4 103.3 81.4 103.3C81.6 103.3 81.9 103.2 82.1 103.2C91.3 100.3 95.9 94.8 99.7 92.3C106.3 88 110.7 89.3 117.9 84C118 84.1 119.6 82.8 121.1 81.1Z" fill="white"/>
<path d="M100.8 74.9C100.8 74.9 113.4 65.9 115.1 63.8C114.5 62.9 113.2 61.1 112.3 60C106.2 67.3 97.1 71.5 90.3 80C90 81.3 100.3 75.7 100.8 74.9Z" fill="white"/>
<path d="M118.4 76.5C119.2 76 119.9 75.4 120.6 74.9C120.2 73.6 119.9 72.1 119.3 70.9C116.1 75.1 112.1 78.6 107.2 79C109.6 79.4 114.2 79 118.4 76.5Z" fill="white"/>
<path d="M87.8 27.8C86.3 29.8 84.6 31.9 82.7 34.1C85.4 32.8 87.5 31.6 89.6 30.2C88.9 29.4 88.5 28.5 87.8 27.8Z" fill="white"/>
<path d="M99.1 42.7C97.2 45.5 95.4 48.4 95 49.1C96.9 47.3 98.6 45.8 100.2 44.3C99.8 43.8 99.5 43.3 99.1 42.7Z" fill="white"/>
<path d="M52.9 99.5C43 101.2 24.4 109.2 23.7 109.9L27.7999 113C30.8999 111.8 49.9 100.8 52.9 99.5Z" fill="white"/>
<path d="M73.5 65.7C58.7999 77 51.8 82.2 38.7 88.7L47 95C47.4 95 61.2999 81.7 68.5 76C71 74.3 73.6 72.1 76.4 69.5C75.4 68.1 74.4 67 73.5 65.7Z" fill="white"/>
<path d="M41 89.8C35.7 95.5 22.6 106 22.5 106.3C26.2 104.3 35.5 98.9 42.1 91.4C41.7 90.8 41.4 90.3 41 89.8Z" fill="white"/>
</svg>
